<?xml version="1.0" encoding="utf-8"?>
<!-- Generator: Adobe Illustrator 22.0.1, SVG Export Plug-In . SVG Version: 6.00 Build 0)  -->
<svg version="1.1" id="Layer_1" xmlns="http://www.w3.org/2000/svg" xmlns:xlink="http://www.w3.org/1999/xlink" x="0px" y="0px"
	 viewBox="0 0 855.9 297.9" style="enable-background:new 0 0 855.9 297.9;" xml:space="preserve">
<style type="text/css">
	.st0{fill:#FFFFFF;stroke:#000000;stroke-miterlimit:10;}
	.st1{fill:none;stroke:#FF0000;stroke-width:2;stroke-miterlimit:10;}
	.st2{fill:none;stroke:#0000FF;stroke-width:2;stroke-miterlimit:10;}
	.st3{fill:none;stroke:#00FF00;stroke-width:2;stroke-miterlimit:10;}
	.st4{fill:none;stroke:#FFFF00;stroke-width:2;stroke-miterlimit:10;}
</style>
<path class="st1" d="M1,97c0,0,49-216,117,0s101,160,101,160s38-400,74-147s76,22,76,22s65-212,135,0s121,127,121,127s67-128,112,1
	s118-122,118-122"/>
<path class="st2" d="M23,249c0,0,44-229,98,0s81-100,81-100s57-209,135,8s230,32,230,32s63-167,144,5s92-65,92-65s25-250,52,0"/>
<path class="st3" d="M23,111c0,0,55,260,94,0s55,95,55,95s41,166,91,4s108,27,108,27s73,170,161,4s165-1,165-1s68.6,185.1,117.8,3.5
	C864,62,904,428,904,428"/>
<path class="st4" d="M33,72c0,0,30,148,49,0s42,116,42,116s86,189,166,5s179-85,179-85s101,240,133,5s75,61,75,61s60,233,89,0
	s90-158,90-158"/>
</svg>
